[img]http://imageshack.us/a/img221/273/thehangoverdvd.jpg[/img]

[b][size=200][color=black]PLOT[/color][/size][/b]

[code]A Las Vegas-set comedy centered around three groomsmen who lose their about-to-be-wed buddy during their drunken misadventures, then must retrace their steps in order to find him. [/code]

[b][size=200][color=black]IMDB[/color][/size][/b]

[code]http://www.imdb.com/title/tt1119646/[/code]

[b][size=200][color=black]MOVIE INFO[/color][/size][/b]

[code]The Hangover [2009] DvdRip x264 AAC-V3nom

Format                           : MPEG-4
Format profile                   : Base Media / Version 2
Codec ID                         : mp42
File size                        : 338 MiB
Duration                         : 1h 35mn
Overall bit rate                 : 493 Kbps
Encoded date                     : UTC 2012-10-15 18:05:30
Tagged date                      : UTC 2012-10-15 18:27:49

Video
ID                               : 1
Format                           : AVC
Format/Info                      : Advanced Video Codec
Format profile                   : Main@L2.1
Format settings, CABAC           : Yes
Format settings, ReFrames        : 4 frames
Codec ID                         : avc1
Codec ID/Info                    : Advanced Video Coding
Duration                         : 1h 35mn
Bit rate mode                    : Variable
Bit rate                         : 380 Kbps
Width                            : 640 pixels
Height                           : 272 pixels
Display aspect ratio             : 2.35:1
Frame rate mode                  : Constant
Frame rate                       : 25.000 fps
Color space                      : YUV
Chroma subsampling               : 4:2:0
Bit depth                        : 8 bits
Scan type                        : Progressive
Bits/(Pixel*Frame)               : 0.087
Stream size                      : 258 MiB (76%)
Writing library                  : x264 core 120
Encoded date                     : UTC 2012-10-15 18:05:30
Tagged date                      : UTC 2012-10-15 18:27:44

Audio
ID                               : 2
Format                           : AAC
Format/Info                      : Advanced Audio Codec
Format profile                   : LC
Codec ID                         : 40
Duration                         : 1h 35mn
Bit rate mode                    : Variable
Bit rate                         : 112 Kbps
Maximum bit rate                 : 170 Kbps
Channel(s)                       : 2 channels
Channel positions                : Front: L R
Sampling rate                    : 48.0 KHz
Compression mode                 : Lossy
Stream size                      : 76.7 MiB (23%)
Encoded date                     : UTC 2012-10-15 18:05:30
Tagged date                      : UTC 2012-10-15 18:27:43[/code]

[b][size=200][color=black]SCREENSHOTS[/color][/size][/b]

[img]http://imageshack.us/a/img141/8743/thehangover2009dvdripx2.jpg[/img]

[img]http://kastatic.com/i2/users/133df62bbf28e62494bb17fe11078f1a.gif[/img][img]http://kastatic.com/i2/users/133df62bbf28e62494bb17fe11078f1a.gif[/img]

